<svg height="512" viewBox="0 0 512 512" width="512" xmlns="http://www.w3.org/2000/svg" xmlns:xlink="http://www.w3.org/1999/xlink"><linearGradient id="a" x1="0%" x2="100%" y1="50%" y2="50%"><stop offset="0" stop-color="#be185d"/><stop offset="1" stop-color="#ef4444"/></linearGradient><g fill="none" fill-rule="evenodd"><path d="m512 365.858544c0 50.816568-5.29106 69.243883-15.226564 87.821661s-24.515453 33.157727-43.093231 43.093231-37.005093 15.226564-87.821661 15.226564h-219.717088l-1.514812-.001587c-49.6703171-.104699-67.9148491-5.388828-86.3068491-15.224977-18.5777778-9.935504-33.1577265-24.515453-43.0932308-43.093231-9.93550426-18.577778-15.2265641-37.005093-15.2265641-87.821661v-219.717088l.00158667-1.514812c.10469897-49.6703171 5.38882821-67.9148491 15.22497743-86.3068491 9.9355043-18.5777778 24.515453-33.1577265 43.0932308-43.0932308 18.5777778-9.93550426 37.0050933-15.2265641 87.8216611-15.2265641h219.717088l1.514812.00158667c49.670317.10469897 67.914849 5.38882821 86.306849 15.22497743 18.577778 9.9355043 33.157727 24.515453 43.093231 43.0932308s15.226564 37.0050933 15.226564 87.8216611z" fill="url(#a)"/><g fill-rule="nonzero" transform="translate(97 112)"><path d="m132.316489 34.4817156v.0024329c9.115662-8.6253936 21.502253-17.7349773 35.683511-21.2362304-11.346937-8.1995983-27.494129-15.39188717-47.619022-12.65706556-24.3824058 3.30903683-40.8648927 22.20704296-50.380978 37.40914746 27.2456743-10.5986497 49.908189-7.1679574 62.316489-3.5182844z" fill="#d8d1d7"/><path d="m148.774583 4c-14.521996 6.371551-26.687437 17.3435696-35.774583 27.6607953 7.755075.5219018 14.26527 1.9112232 19.172134 3.3392047 9.152539-8.5630554 21.589239-17.6093533 35.827866-21.0862825-5.367035-3.8369447-11.804571-7.44918185-19.225417-9.9137175z" fill="#cac0c9"/><path d="m196.022135 13.6214115c-25.579208-8.79176479-48.820649 6.224472-63.567312 20.0006582v-.0024218c-15.036147-4.3643968-44.9868083-8.4357344-79.9633041 11.6787568-48.89119509 28.1166928-65.8685886 82.3035093-41.3962319 227.4257503 1.9485443 11.545549 13.1703123 19.29102 24.6621029 16.813341.1873131-.041173.3746262-.084769.5643725-.128364 10.2852012-2.397755 17.084429-12.158308 15.8121589-22.599437l-7.0230314-57.684147s43.8702265 25.987778 96.2182031-10.625198c43.339911 27.375568 93.148212-13.991742 101.628394-64.206522 9.798674-58.0256458-3.610037-105.7797006-46.935352-120.6724165z" fill="#e6e2e6"/><path d="m313.938187 136.753157c-13.78403-53.1116876-37.656724-75.1535597-74.131128-75.753157 6.37627 20.454275 6.911478 45.554821 2.296528 72.937235-8.480609 50.32975-58.291414 91.789346-101.631071 64.353527-1.248007.844776-2.493581 1.708973-3.763483 2.529475-16.98068 11.030646-32.961495 15.584671-46.709033 16.754735 4.203813 14.028632 11.083664 35.8496 19.072855 56.922892 3.537236 9.331383 12.499532 15.502136 22.498184 15.502136h8.193543c11.086097 0 20.736865-7.561722 23.366681-18.308348l3.43506-14.035914h67.752425l3.432628 14.035914c2.629816 10.746626 12.280583 18.308348 23.36668 18.308348h9.122858c9.434252 0 18.004873-5.495903 21.897292-14.072327 12.212466-26.909048 35.189904-87.582456 21.799981-139.174516z" fill="#d8d1d7"/><path d="m313.94821 136.753157c-13.750018-53.1116876-37.563807-75.1535597-73.94821-75.753157.240249.7695234.456231 1.5608948.679493 2.3449836 26.439543 6.9354215 44.625677 29.6011657 55.96835 73.4081734 13.35931 51.59206-9.563858 112.265468-21.74619 139.174516-3.314954 7.321397-10.03465 12.382774-17.783292 13.713054 1.349278.235469 2.732531.359273 4.140051.359273h9.100347c9.408546 0 17.960446-5.495903 21.843261-14.072327 12.182332-26.909048 35.103073-87.582456 21.74619-139.174516z" fill="#cac0c9"/><path d="m45.7293276 215.430403c-.1126277-.026769-.2228599-.053537-.3354882-.080305-8.3656383-2.022218-16.1609475 5.003226-15.1257266 13.673699l4.4979391 37.677503c1.0879401 9.108499-3.8221697 17.698668-11.7660519 21.38295 3.8365474 1.812939 8.2554067 2.433476 12.7174005 1.452785.1845184-.041369.3690368-.085172.5559519-.128974 10.1293485-2.409141 16.8295271-12.216048 15.5762394-22.706761z" fill="#d8d1d7"/><path d="m196.165467 13.6244545c-8.395221-2.905859-16.535747-3.2098189-24.205694-1.8334878 2.28255.4279758 4.586929 1.0286012 6.913141 1.8334878 43.201062 14.9524063 56.571317 62.8978603 46.800746 121.1560735-6.030199 35.949972-33.015702 67.377017-63.67366 72.488411 37.243633 6.375867 73.820209-29.882928 80.966213-72.488411 9.770572-58.2582132-3.599684-106.2036672-46.800746-121.1560735z" fill="#d8d1d7"/><path d="m241.618957 133.915996c-8.453588 50.315095-58.105687 91.762619-101.307256 64.334788-1.244031.844531-2.485636 1.708476-3.751492 2.528739-16.926576 11.027434-32.856473 15.580134-46.560209 16.749857 1.4865315 4.972537 3.3077149 10.923081 5.3932243 17.47062 13.4806357-.77658 29.8567347-5.562253 48.2868177-18.519003 43.203994 27.430257 100.834378-16.752284 109.287966-67.067379 5.820026-34.647596 3.424116-65.6404134-8.601513-88.1879246-1.651433-.123767-3.329541-.1989983-5.036749-.2256934 6.355954 20.448319 6.889457 45.541556 2.289211 72.915996z" fill="#cac0c9"/><path d="m87.5 141c-5.3265333 0-9.5 5.04907-9.5 11.497624 0 6.450929 4.1734667 11.502376 9.5 11.502376 5.3289709 0 9.5-5.051447 9.5-11.502376 0-6.448554-4.1734667-11.497624-9.5-11.497624z" fill="#433f43"/></g></g></svg>